<svg width="400" height="400" viewBox="0 0 10 10" fill="none" xmlns="http://www.w3.org/2000/svg">
<path fill-rule="evenodd" clip-rule="evenodd" d="M5 10C7.76142 10 10 7.76142 10 5C10 2.23858 7.76142 0 5 0C2.23858 0 0 2.23858 0 5C0 7.76142 2.23858 10 5 10ZM2.82368 4.06623C2.4328 3.93593 2.06093 4.3078 2.19123 4.69868L3.01104 7.15811C3.07909 7.36229 3.27016 7.5 3.48538 7.5H6.51462C6.72984 7.5 6.92091 7.36229 6.98896 7.15811L7.80877 4.69868C7.93907 4.3078 7.5672 3.93593 7.17632 4.06623L6.6123 4.25423C6.3984 4.32553 6.16323 4.24485 6.03816 4.05724L5.41603 3.12404C5.21811 2.82717 4.78189 2.82717 4.58398 3.12404L3.96184 4.05724C3.83677 4.24485 3.6016 4.32553 3.3877 4.25423L2.82368 4.06623Z" fill="currentColor"/>
</svg>
