<?xml version="1.0" encoding="UTF-8"?>
<svg width="400px" height="367px" viewBox="0 0 400 367" version="1.1" xmlns="http://www.w3.org/2000/svg" xmlns:xlink="http://www.w3.org/1999/xlink">
    <!-- Generator: Sketch 54 (76480) - https://sketchapp.com -->
    <title>Path 2</title>
    <desc>Created with Sketch.</desc>
    <g id="Page-1" stroke="none" stroke-width="1" fill="none" fill-rule="evenodd">
        <g id="brands" transform="translate(16.666667, 16.666667)" fill="currentColor" fill-rule="nonzero">
            <path d="M33.3333333,183.333333 C33.3333333,174.128588 40.7952542,166.666667 50,166.666667 L316.666667,166.666667 C325.871412,166.666667 333.333333,174.128588 333.333333,183.333333 L333.333333,333.333333 C333.333333,342.538079 325.871412,350 316.666667,350 L50,350 C40.7952542,350 33.3333333,342.538079 33.3333333,333.333333 L33.3333333,183.333333 Z M66.6666667,200 L66.6666667,316.666667 L300,316.666667 L300,200 L66.6666667,200 Z M77.9935523,143.740581 C64.4035116,150.080184 49.070321,151.64277 34.4809621,148.174937 C19.8915438,144.707259 6.9012828,136.412374 -2.38272321,124.635807 C-11.666712,112.859262 -16.7001028,98.2917458 -16.6664581,83.2959399 C-16.6597092,80.2879089 -15.8390052,77.3377759 -14.2913821,74.7584041 L35.7086179,-8.57492926 C38.720672,-13.5950194 44.1457858,-16.6666667 50.0001667,-16.6666667 L316.666667,-16.6666667 C322.521048,-16.6666667 327.946161,-13.5950194 330.958215,-8.57492926 L380.958215,74.7584041 C382.505895,77.3378694 383.326601,80.288121 383.333292,83.2962612 C383.366648,98.2923959 378.333872,112.859693 369.050223,124.635807 C359.766224,136.412366 346.775438,144.70729 332.185827,148.174907 C317.596078,151.64278 302.263255,150.080179 288.674885,143.740941 C282.649779,140.93067 277.124027,137.254589 272.253688,132.864504 C269.30545,135.532929 266.110821,137.941721 262.702502,140.054937 C252.213352,146.558388 240.11667,150.004167 227.775,150.004167 C215.43333,150.004167 203.336648,146.558388 192.847498,140.054937 C189.453441,137.950564 186.271288,135.553081 183.333333,132.897986 C180.395379,135.553081 177.213226,137.950564 173.819168,140.054937 C163.32995,146.558431 151.23359,150.004167 138.891833,150.004167 C126.55008,150.004167 114.453444,146.558434 103.963998,140.054937 C100.555778,137.941783 97.3612419,135.533073 94.4130959,132.86475 C89.5431333,137.254545 84.0179059,140.930432 77.9935523,143.740581 Z M59.436673,16.6666667 L16.9188716,87.5296689 C17.6612231,93.5179 20.0261379,99.219244 23.7943899,103.999193 C28.4270594,109.875637 34.9091368,114.014744 42.1892163,115.745106 C49.4693021,117.475553 57.1204478,116.695835 63.9020787,113.53228 C70.6833575,110.369052 76.1971777,105.007543 79.5492801,98.3173199 C85.7085369,86.0244961 103.26452,86.0568307 109.378454,98.3722592 C112.106578,103.867579 116.314763,108.492146 121.528867,111.724979 C126.743258,114.957922 132.756628,116.670833 138.891833,116.670833 C145.026916,116.670833 151.039913,114.957987 156.254165,111.725063 C161.468415,108.492139 165.676761,103.867458 168.405286,98.3717767 C174.531987,86.03163 192.134679,86.03163 198.261381,98.3717767 C200.989906,103.867458 205.198252,108.492139 210.412502,111.725063 C215.626648,114.957922 221.63996,116.670833 227.775,116.670833 C233.91004,116.670833 239.923352,114.957922 245.137498,111.725063 C250.351748,108.492139 254.560094,103.867458 257.288619,98.3717767 C263.402795,86.0568594 280.958191,86.0246933 287.117454,98.3171223 C290.469825,105.00766 295.983536,110.36895 302.766264,113.532595 C309.546816,116.695854 317.197331,117.475535 324.47774,115.745037 C331.758125,114.014656 338.240589,109.875449 342.87311,103.999193 C346.640981,99.2197273 349.005632,93.5184684 349.747948,87.5296455 L307.23016,16.6666667 L59.436673,16.6666667 Z" id="Path-2"></path>
        </g>
    </g>
</svg>