<?xml version="1.0" encoding="UTF-8"?>
<svg width="400px" height="328px" viewBox="0 0 400 328" version="1.1" xmlns="http://www.w3.org/2000/svg" xmlns:xlink="http://www.w3.org/1999/xlink">
    <!-- Generator: Sketch 54 (76480) - https://sketchapp.com -->
    <title>Path 2</title>
    <desc>Created with Sketch.</desc>
    <g id="Page-1" stroke="none" stroke-width="1" fill="none" fill-rule="evenodd">
        <g id="dashboard" transform="translate(18.181818, 18.181818)" fill="currentColor" fill-rule="nonzero">
            <path d="M363.636364,-18.1818182 C373.677905,-18.1818182 381.818182,-10.0415409 381.818182,0 L381.818182,290.909091 C381.818182,300.950632 373.677905,309.090909 363.636364,309.090909 L290.909091,309.090909 C280.86755,309.090909 272.727273,300.950632 272.727273,290.909091 L272.727273,0 C272.727273,-10.0415409 280.86755,-18.1818182 290.909091,-18.1818182 L363.636364,-18.1818182 Z M345.454545,18.1818182 L309.090909,18.1818182 L309.090909,272.727273 L345.454545,272.727273 L345.454545,18.1818182 Z M72.7272727,163.636364 C82.7688136,163.636364 90.9090909,171.776641 90.9090909,181.818182 L90.9090909,290.909091 C90.9090909,300.950632 82.7688136,309.090909 72.7272727,309.090909 L0,309.090909 C-10.0415409,309.090909 -18.1818182,300.950632 -18.1818182,290.909091 L-18.1818182,181.818182 C-18.1818182,171.776641 -10.0415409,163.636364 0,163.636364 L72.7272727,163.636364 Z M54.5454545,200 L18.1818182,200 L18.1818182,272.727273 L54.5454545,272.727273 L54.5454545,200 Z M218.181818,72.7272727 C228.223359,72.7272727 236.363636,80.86755 236.363636,90.9090909 L236.363636,290.909091 C236.363636,300.950632 228.223359,309.090909 218.181818,309.090909 L145.454545,309.090909 C135.413005,309.090909 127.272727,300.950632 127.272727,290.909091 L127.272727,90.9090909 C127.272727,80.86755 135.413005,72.7272727 145.454545,72.7272727 L218.181818,72.7272727 Z M163.636364,109.090909 L163.636364,272.727273 L200,272.727273 L200,109.090909 L163.636364,109.090909 Z" id="Path-2"></path>
        </g>
    </g>
</svg>