<svg width="22" height="21" viewBox="0 0 22 21" fill="none" xmlns="http://www.w3.org/2000/svg">
<g clip-path="url(#clip0)">
<path fill-rule="evenodd" clip-rule="evenodd" d="M11 0C11.3713 0 11.712 0.205702 11.8849 0.534254L21.8849 19.5343C22.0481 19.8442 22.0371 20.217 21.8561 20.5168C21.675 20.8167 21.3503 21 21 21H1C0.649714 21 0.324963 20.8167 0.14392 20.5168C-0.0371227 20.217 -0.0480624 19.8442 0.115082 19.5343L10.1151 0.534254C10.288 0.205702 10.6287 0 11 0ZM2.65636 19H19.3436L11 3.14709L2.65636 19Z" fill="#ED5565"/>
<path fill-rule="evenodd" clip-rule="evenodd" d="M11 8C11.5523 8 12 8.44772 12 9V13C12 13.5523 11.5523 14 11 14C10.4477 14 10 13.5523 10 13V9C10 8.44772 10.4477 8 11 8Z" fill="#ED5565"/>
<path d="M11 17C11.5523 17 12 16.5523 12 16C12 15.4477 11.5523 15 11 15C10.4477 15 10 15.4477 10 16C10 16.5523 10.4477 17 11 17Z" fill="#ED5565"/>
</g>
<defs>
<clipPath id="clip0">
<rect width="22" height="21" fill="white"/>
</clipPath>
</defs>
</svg>
