<svg width="36" height="36" viewBox="0 0 36 36" fill="none" xmlns="http://www.w3.org/2000/svg">
<circle cx="18" cy="18" r="18" fill="#F8AC59"/>
<g clip-path="url(#clip0)">
<path d="M17.114 14.4742L15.7158 11.0785C15.6818 10.9961 15.6241 10.9256 15.55 10.876C15.4759 10.8264 15.3887 10.7999 15.2996 10.8H11.2496C11.1756 10.8 11.1028 10.8181 11.0376 10.853C10.9723 10.8878 10.9167 10.9381 10.8755 10.9996C10.8343 11.061 10.809 11.1316 10.8016 11.2052C10.7943 11.2788 10.8051 11.3531 10.8333 11.4214L13.1342 17.01C13.5853 16.3343 14.1721 15.76 14.8573 15.3234C15.5425 14.8868 16.311 14.5977 17.114 14.4742Z" fill="white"/>
<path d="M25.1233 10.9993C25.0822 10.938 25.0265 10.8877 24.9613 10.8529C24.8961 10.8181 24.8233 10.8 24.7494 10.8H20.6994C20.6102 10.7999 20.523 10.8264 20.4489 10.876C20.3748 10.9256 20.3171 10.9961 20.2831 11.0785L18.885 14.4742C19.688 14.5977 20.4565 14.8868 21.1417 15.3234C21.8268 15.76 22.4136 16.3343 22.8648 17.01L25.1656 11.4214C25.1938 11.353 25.2047 11.2787 25.1973 11.2051C25.19 11.1315 25.1645 11.0608 25.1233 10.9993Z" fill="white"/>
<path d="M17.9998 15.3C17.0208 15.3 16.0638 15.5903 15.2497 16.1342C14.4357 16.6781 13.8013 17.4512 13.4266 18.3557C13.0519 19.2602 12.9539 20.2555 13.1449 21.2157C13.3359 22.1759 13.8074 23.0579 14.4996 23.7502C15.1919 24.4424 16.0739 24.9139 17.0341 25.1049C17.9943 25.2959 18.9896 25.1978 19.8941 24.8232C20.7986 24.4485 21.5717 23.8141 22.1156 23.0001C22.6595 22.186 22.9498 21.229 22.9498 20.25C22.9483 18.9376 22.4262 17.6795 21.4983 16.7515C20.5703 15.8235 19.3122 15.3015 17.9998 15.3ZM19.4448 22.4739L17.9998 21.7143L16.5549 22.4739L16.8307 20.8647L15.6607 19.7248L17.2762 19.4904L17.9998 18.0261L18.7225 19.4904L20.338 19.7248L19.168 20.8647L19.4448 22.4739Z" fill="white"/>
</g>
<defs>
<clipPath id="clip0">
<rect x="10.7998" y="10.8" width="14.4" height="14.4" fill="white"/>
</clipPath>
</defs>
</svg>
