<svg width="400" height="400" viewBox="0 0 16 15" fill="curentColor" xmlns="http://www.w3.org/2000/svg">
<path fill-rule="evenodd" clip-rule="evenodd" fill="curentColor" d="M7.5 1C7.22414 1 7 1.22414 7 1.5V4.5C7 4.77614 6.77614 5 6.5 5C6.22386 5 6 4.77614 6 4.5V1.5C6 0.671858 6.67186 0 7.5 0H14.5C15.3281 0 16 0.671858 16 1.5V13.5C16 14.3281 15.3281 15 14.5 15H7.5C6.67186 15 6 14.3281 6 13.5V10.5C6 10.2239 6.22386 10 6.5 10C6.77614 10 7 10.2239 7 10.5V13.5C7 13.7759 7.22414 14 7.5 14H14.5C14.7759 14 15 13.7759 15 13.5V1.5C15 1.22414 14.7759 1 14.5 1H7.5Z" />
<path fill-rule="evenodd" clip-rule="evenodd" fill="curentColor" d="M1.49012e-08 7.5C1.49012e-08 7.22386 0.223858 7 0.5 7H11.5C11.7761 7 12 7.22386 12 7.5C12 7.77614 11.7761 8 11.5 8H0.5C0.223858 8 1.49012e-08 7.77614 1.49012e-08 7.5Z" />
<path fill-rule="evenodd" clip-rule="evenodd" fill="curentColor" d="M3.85355 4.14645C4.04882 4.34171 4.04882 4.65829 3.85355 4.85355L1.20711 7.5L3.85355 10.1464C4.04882 10.3417 4.04882 10.6583 3.85355 10.8536C3.65829 11.0488 3.34171 11.0488 3.14645 10.8536L0.146447 7.85355C-0.0488155 7.65829 -0.0488155 7.34171 0.146447 7.14645L3.14645 4.14645C3.34171 3.95118 3.65829 3.95118 3.85355 4.14645Z" />
</svg>

