<?xml version="1.0" encoding="UTF-8"?>
<svg width="400px" height="480px" viewBox="0 0 400 480" version="1.1" xmlns="http://www.w3.org/2000/svg" xmlns:xlink="http://www.w3.org/1999/xlink">
    <!-- Generator: Sketch 54 (76480) - https://sketchapp.com -->
    <title>Path 2</title>
    <desc>Created with Sketch.</desc>
    <g id="Page-1" stroke="none" stroke-width="1" fill="none" fill-rule="evenodd">
        <g id="orders" transform="translate(20.000000, 20.000000)" fill="currentColor" fill-rule="nonzero">
            <path d="M200,200.462238 C216.507763,206.248434 225.778143,210.480733 235.326584,217.034387 C252.792579,229.022322 262.64,245.600727 262.64,267.02 C262.64,306.547748 238.315479,330.804404 200,337.833281 L200,360 C200,371.045695 191.045695,380 180,380 C168.954305,380 160,371.045695 160,360 L160,339.471476 C138.323983,337.854792 115.139931,332.695791 93.234062,324.820789 C82.8396274,321.084064 77.442487,309.628496 81.1792114,299.234062 C84.9159358,288.839627 96.3715035,283.442487 106.765938,287.179211 C124.414506,293.523745 143.016296,297.750693 160,299.327105 L160,229.110826 C142.440938,222.878057 131.818014,217.851198 121.396222,210.209539 C103.096777,196.791682 92.96,178.354228 92.96,154.6402 C92.96,133.555449 101.874439,116.46187 117.899178,105.165018 C129.276521,97.1444086 143.596033,92.4303595 160,90.4892063 L160,80 C160,68.954305 168.954305,60 180,60 C191.045695,60 200,68.954305 200,80 L200,90.754431 C221.80457,93.2364691 243.081906,99.1295922 257.133809,106.853371 C266.813609,112.173977 270.347434,124.334209 265.026829,134.014009 C259.706223,143.693809 247.545991,147.227634 237.866191,141.907029 C229.335501,137.218043 215.123793,133.196357 200,131.074254 L200,200.462238 Z M140.946447,137.857882 C135.523157,141.681103 132.96,146.595996 132.96,154.6402 C132.96,168.853797 139.596324,177.172159 160,186.100251 L160,130.899597 C151.931462,132.3047 145.437897,134.691575 140.946447,137.857882 Z M222.64,267.02 C222.64,259.621786 219.852532,254.929007 212.691001,250.013628 C209.194101,247.613501 205.310652,245.522601 200,243.258686 L200,296.830658 C215.577155,292.296233 222.64,283.065266 222.64,267.02 Z M360,-20 C371.045695,-20 380,-11.045695 380,0 L380,440 C380,451.045695 371.045695,460 360,460 L0,460 C-11.045695,460 -20,451.045695 -20,440 L-20,0 C-20,-11.045695 -11.045695,-20 0,-20 L360,-20 Z M340,20 L20,20 L20,420 L340,420 L340,20 Z" id="Path-2"></path>
        </g>
    </g>
</svg>