<svg width="400" height="400" viewBox="0 0 14 16" fill="none" xmlns="http://www.w3.org/2000/svg">
<g opacity="0.7">
<path opacity="0.7" fill-rule="evenodd" clip-rule="evenodd" d="M1.5 7C1.22414 7 1 7.22414 1 7.5V14.5C1 14.7759 1.22414 15 1.5 15H12.5C12.7759 15 13 14.7759 13 14.5V7.5C13 7.22414 12.7759 7 12.5 7H1.5ZM0 7.5C0 6.67186 0.671858 6 1.5 6H12.5C13.3281 6 14 6.67186 14 7.5V14.5C14 15.3281 13.3281 16 12.5 16H1.5C0.671858 16 0 15.3281 0 14.5V7.5Z" fill="currentColor"/>
<path opacity="0.7" fill-rule="evenodd" clip-rule="evenodd" d="M7 1C5.34314 1 4 2.34314 4 4V6.5C4 6.77614 3.77614 7 3.5 7C3.22386 7 3 6.77614 3 6.5V4C3 1.79086 4.79086 0 7 0C9.20914 0 11 1.79086 11 4V6.5C11 6.77614 10.7761 7 10.5 7C10.2239 7 10 6.77614 10 6.5V4C10 2.34314 8.65686 1 7 1Z" fill="currentColor"/>
<path opacity="0.7" fill-rule="evenodd" clip-rule="evenodd" d="M5 11C5 9.89546 5.89542 9 7 9C8.10458 9 9 9.89546 9 11C9 12.1045 8.10458 13 7 13C5.89542 13 5 12.1045 5 11ZM7 10C6.44772 10 6 10.4477 6 11C6 11.5523 6.44772 12 7 12C7.55228 12 8 11.5523 8 11C8 10.4477 7.55228 10 7 10Z" fill="currentColor"/>
</g>
</svg>
