<svg width="36" height="36" viewBox="0 0 36 36" fill="none" xmlns="http://www.w3.org/2000/svg">
<circle cx="18" cy="18" r="18" fill="#CC3366"/>
<g clip-path="url(#clip0)">
<path d="M24.2998 10.8H11.6998C11.5805 10.8 11.466 10.8474 11.3816 10.9318C11.2972 11.0162 11.2498 11.1306 11.2498 11.25V13.5C11.2505 14.0965 11.4878 14.6684 11.9096 15.0902C12.3314 15.512 12.9033 15.7493 13.4998 15.75C13.4998 16.9435 13.9739 18.0881 14.8178 18.932C15.6617 19.7759 16.8063 20.25 17.9998 20.25C19.1933 20.25 20.3379 19.7759 21.1818 18.932C22.0257 18.0881 22.4998 16.9435 22.4998 15.75C23.0963 15.7493 23.6682 15.512 24.09 15.0902C24.5118 14.6684 24.7491 14.0965 24.7498 13.5V11.25C24.7498 11.1306 24.7024 11.0162 24.618 10.9318C24.5336 10.8474 24.4192 10.8 24.2998 10.8V10.8ZM12.1498 13.5V11.7H13.4998V14.85C13.1418 14.85 12.7984 14.7078 12.5452 14.4546C12.292 14.2014 12.1498 13.858 12.1498 13.5ZM23.8498 13.5C23.8498 13.858 23.7076 14.2014 23.4544 14.4546C23.2012 14.7078 22.8579 14.85 22.4998 14.85V11.7H23.8498V13.5Z" fill="white"/>
<path d="M18.4498 22.9648V21.15H17.5498V22.9648C15.9195 23.0593 14.3998 23.67 14.3998 24.75C14.3998 24.8693 14.4472 24.9838 14.5316 25.0682C14.616 25.1526 14.7305 25.2 14.8498 25.2H21.1498C21.2692 25.2 21.3836 25.1526 21.468 25.0682C21.5524 24.9838 21.5998 24.8693 21.5998 24.75C21.5998 23.67 20.0802 23.0593 18.4498 22.9648Z" fill="white"/>
</g>
<defs>
<clipPath id="clip0">
<rect x="10.7998" y="10.8" width="14.4" height="14.4" fill="white"/>
</clipPath>
</defs>
</svg>
