<?xml version="1.0" encoding="UTF-8"?>
<svg width="400px" height="400px" viewBox="0 0 400 400" version="1.1" xmlns="http://www.w3.org/2000/svg" xmlns:xlink="http://www.w3.org/1999/xlink">
    <!-- Generator: Sketch 54 (76480) - https://sketchapp.com -->
    <title>Path 2</title>
    <desc>Created with Sketch.</desc>
    <g id="Page-1" stroke="none" stroke-width="1" fill="none" fill-rule="evenodd">
        <g id="users" transform="translate(-0.333333, -0.333333)" fill="currentColor" fill-rule="nonzero">
            <path d="M117.132315,300.405957 C106.743385,306.339314 100.333333,317.382768 100.333333,329.35 L100.333333,333.678697 C128.188712,354.601752 162.813183,367 200.333333,367 C237.853415,367 272.477914,354.601682 300.333333,333.678541 L300.333333,329.35 C300.333333,317.382768 293.923282,306.339314 283.522308,300.399072 L238.311599,274.528266 C226.922412,280.370158 214.012615,283.666667 200.333333,283.666667 C186.631834,283.666667 173.702321,280.359441 162.299585,274.49978 L117.132315,300.405957 Z M117,200.333333 L117,167 C117,120.978588 154.311921,83.6666667 200.333333,83.6666667 C246.354746,83.6666667 283.666667,120.978588 283.666667,167 L283.666667,200.333333 C283.666667,219.787819 276.999102,237.685937 265.824612,251.867046 L300.065648,271.46071 C313.751011,279.276735 323.984938,291.527413 329.37735,305.817959 C352.89185,277.085858 367,240.35705 367,200.333333 C367,108.286092 292.380434,33.6666667 200.333333,33.6666667 C108.285912,33.6666667 33.6666667,108.285912 33.6666667,200.333333 C33.6666667,240.356835 47.7745492,277.085408 71.2886974,305.817403 C76.6791861,291.528522 86.9069553,279.281715 100.57445,271.475916 L134.817258,251.835562 C123.657702,237.65945 117,219.773425 117,200.333333 Z M250.333333,200.333333 L250.333333,167 C250.333333,139.388079 227.945254,117 200.333333,117 C172.721412,117 150.333333,139.388079 150.333333,167 L150.333333,200.333333 C150.333333,227.945254 172.721412,250.333333 200.333333,250.333333 C210.681104,250.333333 220.295222,247.189083 228.272298,241.803971 C228.539557,241.60762 228.812071,241.419759 229.089401,241.240508 C241.938269,232.191123 250.333333,217.241644 250.333333,200.333333 Z M327.2921,354.876744 C292.75812,383.279756 248.537151,400.333333 200.333333,400.333333 C152.127271,400.333333 107.90453,383.278303 73.3699157,354.873087 C73.1617891,354.70935 72.9576583,354.540763 72.7576935,354.367495 C28.5136686,317.682219 0.333333333,262.298587 0.333333333,200.333333 C0.333333333,89.8764208 89.8764208,0.333333333 200.333333,0.333333333 C310.789911,0.333333333 400.333333,89.8765865 400.333333,200.333333 C400.333333,262.296336 372.154855,317.67828 327.913456,354.363609 C327.710571,354.539533 327.503393,354.710638 327.2921,354.876744 Z" id="Path-2"></path>
        </g>
    </g>
</svg>